<?xml version="1.0" encoding="us-ascii" standalone="no"?><svg xmlns="http://www.w3.org/2000/svg" xmlns:xlink="http://www.w3.org/1999/xlink" contentStyleType="text/css" height="398px" preserveAspectRatio="none" style="width:1507px;height:398px;background:#FFFFFF;" version="1.1" viewBox="0 0 1507 398" width="1507px" zoomAndPan="magnify"><defs/><g><!--class Users--><g id="elem_Users"><rect codeLine="1" fill="#F1F1F1" height="145.7813" id="Users" rx="2.5" ry="2.5" style="stroke:#181818;stroke-width:0.5;" width="263" x="77" y="15"/><ellipse cx="185.25" cy="31" fill="#ADD1B2" rx="11" ry="11" style="stroke:#181818;stroke-width:1.0;"/><path d="M187.5938,26.6719 C186.6563,26.2344 186.0625,26.0938 185.1875,26.0938 C182.5625,26.0938 180.5625,28.1719 180.5625,30.8906 L180.5625,32.0156 C180.5625,34.5938 182.6719,36.4844 185.5625,36.4844 C186.7813,36.4844 187.9375,36.1875 188.6875,35.6406 C189.2656,35.2344 189.5938,34.7813 189.5938,34.3906 C189.5938,33.9375 189.2031,33.5469 188.7344,33.5469 C188.5156,33.5469 188.3125,33.625 188.125,33.8125 C187.6719,34.2969 187.6719,34.2969 187.4844,34.3906 C187.0625,34.6563 186.375,34.7813 185.6094,34.7813 C183.5625,34.7813 182.2656,33.6875 182.2656,31.9844 L182.2656,30.8906 C182.2656,29.1094 183.5156,27.7969 185.25,27.7969 C185.8281,27.7969 186.4375,27.9531 186.9063,28.2031 C187.3906,28.4844 187.5625,28.7031 187.6563,29.1094 C187.7188,29.5156 187.75,29.6406 187.8906,29.7656 C188.0313,29.9063 188.2656,30.0156 188.4844,30.0156 C188.75,30.0156 189.0156,29.875 189.1875,29.6563 C189.2969,29.5 189.3281,29.3125 189.3281,28.8906 L189.3281,27.4688 C189.3281,27.0313 189.3125,26.9063 189.2188,26.75 C189.0625,26.4844 188.7813,26.3438 188.4844,26.3438 C188.1875,26.3438 187.9844,26.4375 187.7656,26.75 L187.5938,26.6719 Z " fill="#000000"/><text fill="#000000" font-family="sans-serif" font-size="14" lengthAdjust="spacing" textLength="38" x="205.75" y="35.8467">Users</text><line style="stroke:#181818;stroke-width:0.5;" x1="78" x2="339" y1="47" y2="47"/><rect fill="none" height="6" style="stroke:#C82930;stroke-width:1.0;" width="6" x="85" y="57.6484"/><text fill="#000000" font-family="sans-serif" font-size="14" lengthAdjust="spacing" textLength="237" x="97" y="63.9951">UserRepository : IUserRepository</text><line style="stroke:#181818;stroke-width:0.5;" x1="78" x2="339" y1="71.2969" y2="71.2969"/><ellipse cx="88" cy="84.9453" fill="#84BE84" rx="3" ry="3" style="stroke:#038048;stroke-width:1.0;"/><text fill="#000000" font-family="sans-serif" font-size="14" lengthAdjust="spacing" textLength="49" x="97" y="88.292">Login()</text><ellipse cx="88" cy="101.2422" fill="#84BE84" rx="3" ry="3" style="stroke:#038048;stroke-width:1.0;"/><text fill="#000000" font-family="sans-serif" font-size="14" lengthAdjust="spacing" textLength="90" x="97" y="104.5889">CreateUser()</text><ellipse cx="88" cy="117.5391" fill="#84BE84" rx="3" ry="3" style="stroke:#038048;stroke-width:1.0;"/><text fill="#000000" font-family="sans-serif" font-size="14" lengthAdjust="spacing" textLength="93" x="97" y="120.8857">UpdateUser()</text><ellipse cx="88" cy="133.8359" fill="#84BE84" rx="3" ry="3" style="stroke:#038048;stroke-width:1.0;"/><text fill="#000000" font-family="sans-serif" font-size="14" lengthAdjust="spacing" textLength="208" x="97" y="137.1826">RetrieveCurrentUserDetails()</text><ellipse cx="88" cy="150.1328" fill="#84BE84" rx="3" ry="3" style="stroke:#038048;stroke-width:1.0;"/><text fill="#000000" font-family="sans-serif" font-size="14" lengthAdjust="spacing" textLength="162" x="97" y="153.4795">DeleteUser(userId: int)</text></g><!--class Accounts--><g id="elem_Accounts"><rect codeLine="10" fill="#F1F1F1" height="145.7813" id="Accounts" rx="2.5" ry="2.5" style="stroke:#181818;stroke-width:0.5;" width="319" x="375" y="15"/><ellipse cx="497.25" cy="31" fill="#ADD1B2" rx="11" ry="11" style="stroke:#181818;stroke-width:1.0;"/><path d="M499.5938,26.6719 C498.6563,26.2344 498.0625,26.0938 497.1875,26.0938 C494.5625,26.0938 492.5625,28.1719 492.5625,30.8906 L492.5625,32.0156 C492.5625,34.5938 494.6719,36.4844 497.5625,36.4844 C498.7813,36.4844 499.9375,36.1875 500.6875,35.6406 C501.2656,35.2344 501.5938,34.7813 501.5938,34.3906 C501.5938,33.9375 501.2031,33.5469 500.7344,33.5469 C500.5156,33.5469 500.3125,33.625 500.125,33.8125 C499.6719,34.2969 499.6719,34.2969 499.4844,34.3906 C499.0625,34.6563 498.375,34.7813 497.6094,34.7813 C495.5625,34.7813 494.2656,33.6875 494.2656,31.9844 L494.2656,30.8906 C494.2656,29.1094 495.5156,27.7969 497.25,27.7969 C497.8281,27.7969 498.4375,27.9531 498.9063,28.2031 C499.3906,28.4844 499.5625,28.7031 499.6563,29.1094 C499.7188,29.5156 499.75,29.6406 499.8906,29.7656 C500.0313,29.9063 500.2656,30.0156 500.4844,30.0156 C500.75,30.0156 501.0156,29.875 501.1875,29.6563 C501.2969,29.5 501.3281,29.3125 501.3281,28.8906 L501.3281,27.4688 C501.3281,27.0313 501.3125,26.9063 501.2188,26.75 C501.0625,26.4844 500.7813,26.3438 500.4844,26.3438 C500.1875,26.3438 499.9844,26.4375 499.7656,26.75 L499.5938,26.6719 Z " fill="#000000"/><text fill="#000000" font-family="sans-serif" font-size="14" lengthAdjust="spacing" textLength="66" x="517.75" y="35.8467">Accounts</text><line style="stroke:#181818;stroke-width:0.5;" x1="376" x2="693" y1="47" y2="47"/><rect fill="none" height="6" style="stroke:#C82930;stroke-width:1.0;" width="6" x="383" y="57.6484"/><text fill="#000000" font-family="sans-serif" font-size="14" lengthAdjust="spacing" textLength="293" x="395" y="63.9951">AccountRepository : IAccountRepository</text><line style="stroke:#181818;stroke-width:0.5;" x1="376" x2="693" y1="71.2969" y2="71.2969"/><ellipse cx="386" cy="84.9453" fill="#84BE84" rx="3" ry="3" style="stroke:#038048;stroke-width:1.0;"/><text fill="#000000" font-family="sans-serif" font-size="14" lengthAdjust="spacing" textLength="118" x="395" y="88.292">CreateAccount()</text><ellipse cx="386" cy="101.2422" fill="#84BE84" rx="3" ry="3" style="stroke:#038048;stroke-width:1.0;"/><text fill="#000000" font-family="sans-serif" font-size="14" lengthAdjust="spacing" textLength="121" x="395" y="104.5889">GetAllAccounts()</text><ellipse cx="386" cy="117.5391" fill="#84BE84" rx="3" ry="3" style="stroke:#038048;stroke-width:1.0;"/><text fill="#000000" font-family="sans-serif" font-size="14" lengthAdjust="spacing" textLength="195" x="395" y="120.8857">GetAccount(accountId: int)</text><ellipse cx="386" cy="133.8359" fill="#84BE84" rx="3" ry="3" style="stroke:#038048;stroke-width:1.0;"/><text fill="#000000" font-family="sans-serif" font-size="14" lengthAdjust="spacing" textLength="220" x="395" y="137.1826">UpdateAccount(accountId: int)</text><ellipse cx="386" cy="150.1328" fill="#84BE84" rx="3" ry="3" style="stroke:#038048;stroke-width:1.0;"/><text fill="#000000" font-family="sans-serif" font-size="14" lengthAdjust="spacing" textLength="217" x="395" y="153.4795">DeleteAccount(accountId: int)</text></g><!--class Invites--><g id="elem_Invites"><rect codeLine="19" fill="#F1F1F1" height="162.0781" id="Invites" rx="2.5" ry="2.5" style="stroke:#181818;stroke-width:0.5;" width="297" x="729" y="7"/><ellipse cx="849.25" cy="23" fill="#ADD1B2" rx="11" ry="11" style="stroke:#181818;stroke-width:1.0;"/><path d="M851.5938,18.6719 C850.6563,18.2344 850.0625,18.0938 849.1875,18.0938 C846.5625,18.0938 844.5625,20.1719 844.5625,22.8906 L844.5625,24.0156 C844.5625,26.5938 846.6719,28.4844 849.5625,28.4844 C850.7813,28.4844 851.9375,28.1875 852.6875,27.6406 C853.2656,27.2344 853.5938,26.7813 853.5938,26.3906 C853.5938,25.9375 853.2031,25.5469 852.7344,25.5469 C852.5156,25.5469 852.3125,25.625 852.125,25.8125 C851.6719,26.2969 851.6719,26.2969 851.4844,26.3906 C851.0625,26.6563 850.375,26.7813 849.6094,26.7813 C847.5625,26.7813 846.2656,25.6875 846.2656,23.9844 L846.2656,22.8906 C846.2656,21.1094 847.5156,19.7969 849.25,19.7969 C849.8281,19.7969 850.4375,19.9531 850.9063,20.2031 C851.3906,20.4844 851.5625,20.7031 851.6563,21.1094 C851.7188,21.5156 851.75,21.6406 851.8906,21.7656 C852.0313,21.9063 852.2656,22.0156 852.4844,22.0156 C852.75,22.0156 853.0156,21.875 853.1875,21.6563 C853.2969,21.5 853.3281,21.3125 853.3281,20.8906 L853.3281,19.4688 C853.3281,19.0313 853.3125,18.9063 853.2188,18.75 C853.0625,18.4844 852.7813,18.3438 852.4844,18.3438 C852.1875,18.3438 851.9844,18.4375 851.7656,18.75 L851.5938,18.6719 Z " fill="#000000"/><text fill="#000000" font-family="sans-serif" font-size="14" lengthAdjust="spacing" textLength="48" x="869.75" y="27.8467">Invites</text><line style="stroke:#181818;stroke-width:0.5;" x1="730" x2="1025" y1="39" y2="39"/><rect fill="none" height="6" style="stroke:#C82930;stroke-width:1.0;" width="6" x="737" y="49.6484"/><text fill="#000000" font-family="sans-serif" font-size="14" lengthAdjust="spacing" textLength="271" x="749" y="55.9951">InvitesRepository : IInvitesRepository</text><line style="stroke:#181818;stroke-width:0.5;" x1="730" x2="1025" y1="63.2969" y2="63.2969"/><ellipse cx="740" cy="76.9453" fill="#84BE84" rx="3" ry="3" style="stroke:#038048;stroke-width:1.0;"/><text fill="#000000" font-family="sans-serif" font-size="14" lengthAdjust="spacing" textLength="186" x="749" y="80.292">SendInvite(accountId: int)</text><ellipse cx="740" cy="93.2422" fill="#84BE84" rx="3" ry="3" style="stroke:#038048;stroke-width:1.0;"/><text fill="#000000" font-family="sans-serif" font-size="14" lengthAdjust="spacing" textLength="243" x="749" y="96.5889">GetAccountInvites(accountId: int)</text><ellipse cx="740" cy="109.5391" fill="#84BE84" rx="3" ry="3" style="stroke:#038048;stroke-width:1.0;"/><text fill="#000000" font-family="sans-serif" font-size="14" lengthAdjust="spacing" textLength="161" x="749" y="112.8857">GetInvite(inviteId: int)</text><ellipse cx="740" cy="125.8359" fill="#84BE84" rx="3" ry="3" style="stroke:#038048;stroke-width:1.0;"/><text fill="#000000" font-family="sans-serif" font-size="14" lengthAdjust="spacing" textLength="137" x="749" y="129.1826">GetAllSentInvites()</text><ellipse cx="740" cy="142.1328" fill="#84BE84" rx="3" ry="3" style="stroke:#038048;stroke-width:1.0;"/><text fill="#000000" font-family="sans-serif" font-size="14" lengthAdjust="spacing" textLength="217" x="749" y="145.4795">DeleteSentInvite(inviteId: int)</text><ellipse cx="740" cy="158.4297" fill="#84BE84" rx="3" ry="3" style="stroke:#038048;stroke-width:1.0;"/><text fill="#000000" font-family="sans-serif" font-size="14" lengthAdjust="spacing" textLength="215" x="749" y="161.7764">RespondToInvite(inviteId: int)</text></g><!--class Transactions--><g id="elem_Transactions"><rect codeLine="29" fill="#F1F1F1" height="145.7813" id="Transactions" rx="2.5" ry="2.5" style="stroke:#181818;stroke-width:0.5;" width="403" x="7" y="237"/><ellipse cx="158.75" cy="253" fill="#ADD1B2" rx="11" ry="11" style="stroke:#181818;stroke-width:1.0;"/><path d="M161.0938,248.6719 C160.1563,248.2344 159.5625,248.0938 158.6875,248.0938 C156.0625,248.0938 154.0625,250.1719 154.0625,252.8906 L154.0625,254.0156 C154.0625,256.5938 156.1719,258.4844 159.0625,258.4844 C160.2813,258.4844 161.4375,258.1875 162.1875,257.6406 C162.7656,257.2344 163.0938,256.7813 163.0938,256.3906 C163.0938,255.9375 162.7031,255.5469 162.2344,255.5469 C162.0156,255.5469 161.8125,255.625 161.625,255.8125 C161.1719,256.2969 161.1719,256.2969 160.9844,256.3906 C160.5625,256.6563 159.875,256.7813 159.1094,256.7813 C157.0625,256.7813 155.7656,255.6875 155.7656,253.9844 L155.7656,252.8906 C155.7656,251.1094 157.0156,249.7969 158.75,249.7969 C159.3281,249.7969 159.9375,249.9531 160.4063,250.2031 C160.8906,250.4844 161.0625,250.7031 161.1563,251.1094 C161.2188,251.5156 161.25,251.6406 161.3906,251.7656 C161.5313,251.9063 161.7656,252.0156 161.9844,252.0156 C162.25,252.0156 162.5156,251.875 162.6875,251.6563 C162.7969,251.5 162.8281,251.3125 162.8281,250.8906 L162.8281,249.4688 C162.8281,249.0313 162.8125,248.9063 162.7188,248.75 C162.5625,248.4844 162.2813,248.3438 161.9844,248.3438 C161.6875,248.3438 161.4844,248.4375 161.2656,248.75 L161.0938,248.6719 Z " fill="#000000"/><text fill="#000000" font-family="sans-serif" font-size="14" lengthAdjust="spacing" textLength="91" x="179.25" y="257.8467">Transactions</text><line style="stroke:#181818;stroke-width:0.5;" x1="8" x2="409" y1="269" y2="269"/><rect fill="none" height="6" style="stroke:#C82930;stroke-width:1.0;" width="6" x="15" y="279.6484"/><text fill="#000000" font-family="sans-serif" font-size="14" lengthAdjust="spacing" textLength="343" x="27" y="285.9951">TransactionRepository : ITransactionRepository</text><line style="stroke:#181818;stroke-width:0.5;" x1="8" x2="409" y1="293.2969" y2="293.2969"/><ellipse cx="18" cy="306.9453" fill="#84BE84" rx="3" ry="3" style="stroke:#038048;stroke-width:1.0;"/><text fill="#000000" font-family="sans-serif" font-size="14" lengthAdjust="spacing" textLength="242" x="27" y="310.292">CreateTransaction(accountId: int)</text><ellipse cx="18" cy="323.2422" fill="#84BE84" rx="3" ry="3" style="stroke:#038048;stroke-width:1.0;"/><text fill="#000000" font-family="sans-serif" font-size="14" lengthAdjust="spacing" textLength="245" x="27" y="326.5889">GetAllTransactions(accountId: int)</text><ellipse cx="18" cy="339.5391" fill="#84BE84" rx="3" ry="3" style="stroke:#038048;stroke-width:1.0;"/><text fill="#000000" font-family="sans-serif" font-size="14" lengthAdjust="spacing" textLength="352" x="27" y="342.8857">GetTransaction(accountId: int, transactionId: int)</text><ellipse cx="18" cy="355.8359" fill="#84BE84" rx="3" ry="3" style="stroke:#038048;stroke-width:1.0;"/><text fill="#000000" font-family="sans-serif" font-size="14" lengthAdjust="spacing" textLength="377" x="27" y="359.1826">UpdateTransaction(accountId: int, transactionId: int)</text><ellipse cx="18" cy="372.1328" fill="#84BE84" rx="3" ry="3" style="stroke:#038048;stroke-width:1.0;"/><text fill="#000000" font-family="sans-serif" font-size="14" lengthAdjust="spacing" textLength="374" x="27" y="375.4795">DeleteTransaction(accountId: int, transactionId: int)</text></g><!--class RepeatingTransactions--><g id="elem_RepeatingTransactions"><rect codeLine="38" fill="#F1F1F1" height="162.0781" id="RepeatingTransactions" rx="2.5" ry="2.5" style="stroke:#181818;stroke-width:0.5;" width="658" x="445.5" y="229"/><ellipse cx="687.25" cy="245" fill="#ADD1B2" rx="11" ry="11" style="stroke:#181818;stroke-width:1.0;"/><path d="M689.5938,240.6719 C688.6563,240.2344 688.0625,240.0938 687.1875,240.0938 C684.5625,240.0938 682.5625,242.1719 682.5625,244.8906 L682.5625,246.0156 C682.5625,248.5938 684.6719,250.4844 687.5625,250.4844 C688.7813,250.4844 689.9375,250.1875 690.6875,249.6406 C691.2656,249.2344 691.5938,248.7813 691.5938,248.3906 C691.5938,247.9375 691.2031,247.5469 690.7344,247.5469 C690.5156,247.5469 690.3125,247.625 690.125,247.8125 C689.6719,248.2969 689.6719,248.2969 689.4844,248.3906 C689.0625,248.6563 688.375,248.7813 687.6094,248.7813 C685.5625,248.7813 684.2656,247.6875 684.2656,245.9844 L684.2656,244.8906 C684.2656,243.1094 685.5156,241.7969 687.25,241.7969 C687.8281,241.7969 688.4375,241.9531 688.9063,242.2031 C689.3906,242.4844 689.5625,242.7031 689.6563,243.1094 C689.7188,243.5156 689.75,243.6406 689.8906,243.7656 C690.0313,243.9063 690.2656,244.0156 690.4844,244.0156 C690.75,244.0156 691.0156,243.875 691.1875,243.6563 C691.2969,243.5 691.3281,243.3125 691.3281,242.8906 L691.3281,241.4688 C691.3281,241.0313 691.3125,240.9063 691.2188,240.75 C691.0625,240.4844 690.7813,240.3438 690.4844,240.3438 C690.1875,240.3438 689.9844,240.4375 689.7656,240.75 L689.5938,240.6719 Z " fill="#000000"/><text fill="#000000" font-family="sans-serif" font-size="14" lengthAdjust="spacing" textLength="166" x="707.75" y="249.8467">RepeatingTransactions</text><line style="stroke:#181818;stroke-width:0.5;" x1="446.5" x2="1102.5" y1="261" y2="261"/><rect fill="none" height="6" style="stroke:#C82930;stroke-width:1.0;" width="6" x="453.5" y="271.6484"/><text fill="#000000" font-family="sans-serif" font-size="14" lengthAdjust="spacing" textLength="401" x="465.5" y="277.9951">RepTransactionRepository : IRepTransactionRepository</text><line style="stroke:#181818;stroke-width:0.5;" x1="446.5" x2="1102.5" y1="285.2969" y2="285.2969"/><ellipse cx="456.5" cy="298.9453" fill="#84BE84" rx="3" ry="3" style="stroke:#038048;stroke-width:1.0;"/><text fill="#000000" font-family="sans-serif" font-size="14" lengthAdjust="spacing" textLength="317" x="465.5" y="302.292">CreateRepeatingTransaction(accountId: int)</text><ellipse cx="456.5" cy="315.2422" fill="#84BE84" rx="3" ry="3" style="stroke:#038048;stroke-width:1.0;"/><text fill="#000000" font-family="sans-serif" font-size="14" lengthAdjust="spacing" textLength="632" x="465.5" y="318.5889">GetAllTransactionsForRepeatingTransaction(accountId: int, repeatingTransactionId: int)</text><ellipse cx="456.5" cy="331.5391" fill="#84BE84" rx="3" ry="3" style="stroke:#038048;stroke-width:1.0;"/><text fill="#000000" font-family="sans-serif" font-size="14" lengthAdjust="spacing" textLength="320" x="465.5" y="334.8857">GetAllRepeatingTransactions(accountId: int)</text><ellipse cx="456.5" cy="347.8359" fill="#84BE84" rx="3" ry="3" style="stroke:#038048;stroke-width:1.0;"/><text fill="#000000" font-family="sans-serif" font-size="14" lengthAdjust="spacing" textLength="500" x="465.5" y="351.1826">GetRepeatingTransaction(accountId: int, repeatingTransactionId: int)</text><ellipse cx="456.5" cy="364.1328" fill="#84BE84" rx="3" ry="3" style="stroke:#038048;stroke-width:1.0;"/><text fill="#000000" font-family="sans-serif" font-size="14" lengthAdjust="spacing" textLength="525" x="465.5" y="367.4795">UpdateRepeatingTransaction(accountId: int, repeatingTransactionId: int)</text><ellipse cx="456.5" cy="380.4297" fill="#84BE84" rx="3" ry="3" style="stroke:#038048;stroke-width:1.0;"/><text fill="#000000" font-family="sans-serif" font-size="14" lengthAdjust="spacing" textLength="522" x="465.5" y="383.7764">DeleteRepeatingTransaction(accountId: int, repeatingTransactionId: int)</text></g><!--class UserAccess--><g id="elem_UserAccess"><rect codeLine="48" fill="#F1F1F1" height="113.1875" id="UserAccess" rx="2.5" ry="2.5" style="stroke:#181818;stroke-width:0.5;" width="361" x="1139" y="253.5"/><ellipse cx="1275.25" cy="269.5" fill="#ADD1B2" rx="11" ry="11" style="stroke:#181818;stroke-width:1.0;"/><path d="M1277.5938,265.1719 C1276.6563,264.7344 1276.0625,264.5938 1275.1875,264.5938 C1272.5625,264.5938 1270.5625,266.6719 1270.5625,269.3906 L1270.5625,270.5156 C1270.5625,273.0938 1272.6719,274.9844 1275.5625,274.9844 C1276.7813,274.9844 1277.9375,274.6875 1278.6875,274.1406 C1279.2656,273.7344 1279.5938,273.2813 1279.5938,272.8906 C1279.5938,272.4375 1279.2031,272.0469 1278.7344,272.0469 C1278.5156,272.0469 1278.3125,272.125 1278.125,272.3125 C1277.6719,272.7969 1277.6719,272.7969 1277.4844,272.8906 C1277.0625,273.1563 1276.375,273.2813 1275.6094,273.2813 C1273.5625,273.2813 1272.2656,272.1875 1272.2656,270.4844 L1272.2656,269.3906 C1272.2656,267.6094 1273.5156,266.2969 1275.25,266.2969 C1275.8281,266.2969 1276.4375,266.4531 1276.9063,266.7031 C1277.3906,266.9844 1277.5625,267.2031 1277.6563,267.6094 C1277.7188,268.0156 1277.75,268.1406 1277.8906,268.2656 C1278.0313,268.4063 1278.2656,268.5156 1278.4844,268.5156 C1278.75,268.5156 1279.0156,268.375 1279.1875,268.1563 C1279.2969,268 1279.3281,267.8125 1279.3281,267.3906 L1279.3281,265.9688 C1279.3281,265.5313 1279.3125,265.4063 1279.2188,265.25 C1279.0625,264.9844 1278.7813,264.8438 1278.4844,264.8438 C1278.1875,264.8438 1277.9844,264.9375 1277.7656,265.25 L1277.5938,265.1719 Z " fill="#000000"/><text fill="#000000" font-family="sans-serif" font-size="14" lengthAdjust="spacing" textLength="80" x="1295.75" y="274.3467">UserAccess</text><line style="stroke:#181818;stroke-width:0.5;" x1="1140" x2="1499" y1="285.5" y2="285.5"/><rect fill="none" height="6" style="stroke:#C82930;stroke-width:1.0;" width="6" x="1147" y="296.1484"/><text fill="#000000" font-family="sans-serif" font-size="14" lengthAdjust="spacing" textLength="335" x="1159" y="302.4951">UserAccessRepository : IUserAccessRepository</text><line style="stroke:#181818;stroke-width:0.5;" x1="1140" x2="1499" y1="309.7969" y2="309.7969"/><ellipse cx="1150" cy="323.4453" fill="#84BE84" rx="3" ry="3" style="stroke:#038048;stroke-width:1.0;"/><text fill="#000000" font-family="sans-serif" font-size="14" lengthAdjust="spacing" textLength="274" x="1159" y="326.792">GetAllUsersForAccount(accountId: int)</text><ellipse cx="1150" cy="339.7422" fill="#84BE84" rx="3" ry="3" style="stroke:#038048;stroke-width:1.0;"/><text fill="#000000" font-family="sans-serif" font-size="14" lengthAdjust="spacing" textLength="304" x="1159" y="343.0889">UpdateUserRole(accountId: int, userId: int)</text><ellipse cx="1150" cy="356.0391" fill="#84BE84" rx="3" ry="3" style="stroke:#038048;stroke-width:1.0;"/><text fill="#000000" font-family="sans-serif" font-size="14" lengthAdjust="spacing" textLength="292" x="1159" y="359.3857">RevokeAccess(accountId: int, userId: int)</text></g><!--SRC=[hLL1QiCm4Bpx5JesDFr0RY6XnT2Jcpn0s4iG5PAHP4Cf-NjbIv6yiMJSDZd4Q7PsTdTarZMdMfEp1gN9Tq7ixsKyLT1ApOnKNsH7IeoCj6VoBYzCF6tywQ206XY80JgtpJrKWL4CUZXqIe4mG-m8XZAk0-K877nMP__APaUOC9lYMXJrsEo-hcKdJEpN0xZb6OZwzD5Gz0tCdlERCe8zaxfdQ6SwuZB73PJZXB5AqJC3SIf_nbFDG5_Z0qJZOfacuYHU8i_pEcny96GujzM239uoHjBv5UXMYkOaqwHWnabHeMbjc1JHaGc8NKa6q7rF60i6SJwjcoVcrRR4n5ZoNVbRhdFtjxd1JkkATO69Iz9N6yrQcuiXTrFogsr-bMf5_fQe12afdXmstywZYhlhVPIQk_3_guLNO5YeTWE0ndlUGVDjVuyZXyVFXRstDRjn_7H83hEsqNA_ROTUVe8hlSo__W00]--></g></svg>